<?xml version="1.0" encoding="iso-8859-1"?>
<!-- Generator: Adobe Illustrator 12.0.0, SVG Export Plug-In . SVG Version: 6.00 Build 51448)  -->
<!DOCTYPE svg PUBLIC "-//W3C//DTD SVG 1.1//EN" "http://www.w3.org/Graphics/SVG/1.1/DTD/svg11.dtd" [
	<!ENTITY ns_svg "http://www.w3.org/2000/svg">
	<!ENTITY ns_xlink "http://www.w3.org/1999/xlink">
]>
<svg  version="1.1" id="Layer_1" xmlns="&ns_svg;" xmlns:xlink="&ns_xlink;" width="94.064" height="94.352"
	 viewBox="2.857 2.857 94.064 94.352" style="overflow:visible;enable-background:new 2.857 2.857 94.064 94.352;"
	 xml:space="preserve">
<title>W3C Community Groups Logo</title>
<desc>
	This is a symbol of unity and collaboration with diversity.  Four stylized human figures in a circle, with arms reaching out to one another, heads pointed outward, bodies tapering in toward the center of the circle.  The figures are different colors (light blue, pale green, red, and orange), and different sizes.  This image links back to the W3C Community Groups site.
	</desc>
<a xlink:href="http://www.w3.org/community/"  xlink:title="W3C Community Groups">
	<g id="shadows">
		<path style="fill:#FFFFFF;" d="M45.749,44.435c-0.035-11.319,1.114-21.53,1.114-21.53l-7.042-6.576c0,0,10.818-3.615,17.688-0.233
			c2.646,6.666,13.805,6.143,13.805,6.143s8.22,4.31,11.213,12.771c-4.077-1.358-16.193-4.628-16.193-4.628
			S54.323,34.022,45.749,44.435z"/>
		<ellipse style="fill:#FFFFFF;" cx="69.106" cy="11.982" rx="9.976" ry="6.927"/>
		<path style="fill:#FFFFFF;" d="M47.774,51.714c8.051,6.448,12.65,11.552,17.673,18.121c0.158,3.692-0.759,8.158-2.095,12.923
			c8.517-2.692,14.23-9.505,14.23-9.505s-2.857-10.989,7.527-13.736c2.363-6.374,1.1-15.495-0.385-18.611
			c-3.61,2.884-5.615,6.105-10,10.796C67.325,51.701,47.774,51.714,47.774,51.714z"/>
		<circle style="fill:#FFFFFF;" cx="88.448" cy="70.079" r="8.473"/>
		<path style="fill:#FFFFFF;" d="M40.989,52.593c-1.065,5.132-1.384,13.297,1.319,20.989c2.967,5.824,11.978,11.318,13.626,11.208
			s-9.341,2.638-16.329-0.549c-1.471-3.297-5.427-7.802-12.46-6.593c-3.736-3.187-7.65-7.789-9.561-13.956
			c3.517,1.099,6.367,3.024,11.648,3.296C33.865,62.684,40.989,52.593,40.989,52.593z"/>
		<ellipse style="fill:#FFFFFF;" cx="29.725" cy="88.886" rx="7.748" ry="8.323"/>
		<path style="fill:#FFFFFF;" d="M39.822,46.33L29.67,30.615c0.77-6.593,6.044-13.406,6.044-13.406
			c-10.109,3.626-14.615,11.538-14.615,11.538c0.77,8.352-5.714,10.11-5.714,10.11c-2.528,8.242-0.55,16.594-0.55,16.594
			c2.857-7.363,5.937-9.618,5.937-9.618L39.822,46.33z"/>
		<ellipse style="fill:#FFFFFF;" cx="10.879" cy="29.956" rx="7.802" ry="7.143"/>
	</g>
	<g id="figures">
		<path style="fill:#98C000;" d="M45.53,42.237c-0.035-11.319,1.114-21.53,1.114-21.53l-7.042-6.576c0,0,10.818-3.615,17.688-0.233
			c2.646,6.666,13.805,6.143,13.805,6.143s8.22,4.31,11.213,12.771c-4.077-1.358-16.193-4.628-16.193-4.628
			S54.104,31.824,45.53,42.237z"/>
		<ellipse style="fill:#98C000;" cx="68.886" cy="9.784" rx="9.976" ry="6.927"/>
		<path style="fill:#CE0005;" d="M47.554,49.517c8.051,6.448,12.65,11.552,17.673,18.121c0.158,3.692-0.759,8.158-2.095,12.923
			c8.517-2.692,14.23-9.506,14.23-9.506s-2.857-10.989,7.527-13.736c2.363-6.374,1.099-15.495-0.385-18.611
			c-3.61,2.884-5.615,6.105-10,10.796C67.106,49.503,47.554,49.517,47.554,49.517z"/>
		<circle style="fill:#CE0005;" cx="88.229" cy="67.881" r="8.473"/>
		<path style="fill:#F08400;" d="M40.769,50.396c-1.065,5.132-1.384,13.297,1.319,20.989c2.967,5.824,11.978,11.318,13.626,11.208
			s-9.341,2.637-16.329-0.549c-1.471-3.297-5.427-7.802-12.46-6.593c-3.736-3.187-7.65-7.789-9.561-13.956
			c3.517,1.099,6.367,3.024,11.648,3.296C33.646,60.486,40.769,50.396,40.769,50.396z"/>
		<ellipse style="fill:#F08400;" cx="29.505" cy="86.688" rx="7.748" ry="8.323"/>
		<path style="fill:#008EC1;" d="M39.602,44.132L29.45,28.417c0.77-6.593,6.044-13.407,6.044-13.407
			c-10.109,3.626-14.615,11.539-14.615,11.539c0.77,8.352-5.714,10.11-5.714,10.11c-2.528,8.242-0.55,16.594-0.55,16.594
			c2.857-7.363,5.937-9.618,5.937-9.618L39.602,44.132z"/>
		<ellipse style="fill:#008EC1;" cx="10.659" cy="27.758" rx="7.802" ry="7.143"/>
	</g>
</a>
<g>
	<path style="fill:#FFFFFF;" d="M4.923,34.534l7.488-1.248v5.616c1.638-3.042,4.992-5.928,10.53-5.928
		c9.282,0,14.898,7.878,14.898,17.472c0,10.452-6.552,19.656-17.784,19.656c-3.276,0-5.928-0.78-7.41-1.872v17.862L4.923,87.34
		V34.534z M12.645,45.064V60.04c0,2.652,2.34,3.978,6.006,3.978c6.63,0,11.076-4.602,11.076-13.026
		c0-7.332-3.354-11.622-8.112-11.622C16.935,39.37,13.659,43.583,12.645,45.064z"/>
	<path style="fill:#FFFFFF;" d="M46.263,34.534l7.488-1.248v5.616c1.638-3.042,4.992-5.928,10.53-5.928
		c9.282,0,14.898,7.878,14.898,17.472c0,10.452-6.552,19.656-17.784,19.656c-3.276,0-5.928-0.78-7.41-1.872v17.862l-7.722,1.248
		V34.534z M53.985,45.064V60.04c0,2.652,2.34,3.978,6.006,3.978c6.63,0,11.076-4.602,11.076-13.026
		c0-7.332-3.354-11.622-8.112-11.622C58.275,39.37,54.999,43.583,53.985,45.064z"/>
	<path style="fill:#FFFFFF;" d="M87.759,14.645l7.722-1.248v55.77h-7.722V14.645z"/>
</g>
<g>
	<path d="M2.911,32.522l7.488-1.248v5.616c1.638-3.042,4.992-5.928,10.53-5.928c9.282,0,14.898,7.878,14.898,17.472
		c0,10.452-6.552,19.656-17.784,19.656c-3.276,0-5.928-0.78-7.41-1.872V84.08l-7.722,1.248V32.522z M10.634,43.053v14.976
		c0,2.652,2.34,3.978,6.006,3.978c6.63,0,11.076-4.602,11.076-13.026c0-7.332-3.354-11.622-8.112-11.622
		C14.924,37.358,11.648,41.571,10.634,43.053z"/>
	<path d="M44.251,32.522l7.488-1.248v5.616c1.638-3.042,4.992-5.928,10.53-5.928c9.282,0,14.898,7.878,14.898,17.472
		c0,10.452-6.552,19.656-17.784,19.656c-3.276,0-5.928-0.78-7.41-1.872V84.08l-7.722,1.248V32.522z M51.973,43.053v14.976
		c0,2.652,2.34,3.978,6.006,3.978c6.63,0,11.076-4.602,11.076-13.026c0-7.332-3.354-11.622-8.112-11.622
		C56.263,37.358,52.988,41.571,51.973,43.053z"/>
	<path d="M85.747,12.633l7.722-1.248v55.77h-7.722V12.633z"/>
</g>
</svg>
